<svg xmlns="http://www.w3.org/2000/svg" xmlns:xlink="http://www.w3.org/1999/xlink" id="Layer_1" x="0px" y="0px" viewBox="0 0 500 217.3" style="enable-background:new 0 0 500 217.3;" xml:space="preserve"><style type="text/css">	.st0{fill:#010202;}</style><g>	<path class="st0" d="M74.7,70.1c-21.3,0-38.6,17.3-38.6,38.6s17.3,38.6,38.6,38.6c21.3,0,38.6-17.3,38.6-38.6S96,70.1,74.7,70.1z   M74.7,129c-11.2,0-20.3-9.1-20.3-20.3s9.1-20.3,20.3-20.3c11.2,0,20.3,9.1,20.3,20.3S85.9,129,74.7,129z"></path>	<polygon class="st0" points="166.1,70.1 166.1,106.3 139,85.6 118.8,70.1 118.8,70.1 118.8,70.1 118.8,70.1 118.8,95.6   118.8,147.3 139,147.3 139,111.1 166.1,131.9 186.2,147.3 186.4,147.3 186.4,121.9 186.4,70.1 186.4,70.1  "></polygon>	<polygon class="st0" points="277.2,70.1 251.3,70.1 231.8,94.6 212.3,70.1 186.4,70.1 221.7,114.4 221.7,147.2 241.9,147.2   241.9,114.4  "></polygon>	<polygon class="st0" points="370.6,70.1 343.7,70.1 324.1,92.6 304.3,70.1 277.4,70.1 310.6,108 276.4,147.3 303.3,147.3   324.1,123.4 345,147.3 371.9,147.3 337.5,108  "></polygon>	<polygon class="st0" points="429.9,90 418.2,70.1 406.4,90 372.5,147.2 396,147.2 418.2,109.8 440.3,147.2 463.9,147.2  "></polygon></g></svg>